<?xml version="1.0" encoding="utf-8"?>
<!-- Generator: Adobe Illustrator 18.1.1, SVG Export Plug-In . SVG Version: 6.00 Build 0)  -->
<!DOCTYPE svg PUBLIC "-//W3C//DTD SVG 1.1//EN" "http://www.w3.org/Graphics/SVG/1.1/DTD/svg11.dtd">
<svg version="1.1" id="Layer_3" xmlns="http://www.w3.org/2000/svg" xmlns:xlink="http://www.w3.org/1999/xlink" x="0px" y="0px"
	 viewBox="0 0 368.3 248.8" preserveAspectRatio="xMidYMin" enable-background="new 0 0 368.3 248.8" xml:space="preserve">
<g>
	<path fill="none" stroke="#5B5B5B" stroke-width="10" stroke-miterlimit="10" d="M333.5,124.4c-7.9-28.8-29.9-54.3-81.9-56.8
		C242,48.8,213.8,5,158.7,5c-56.4,0-93.1,47.3-105,93.8C23.1,111.5,5,135.8,5,165c0,38.7,29.8,74.7,65,78.7l188.8,0.1
		c27.3,0,48.5-13.7,62-33.4"/>
</g>
<g>
	<path fill="#5B5B5B" d="M297.4,176.1l-3.5,11.5h-7.6l13-40.4h9.4l13.1,40.4h-8l-3.7-11.5H297.4z M308.9,170.5
		c-4.3-13.4-3.4-10.4-5.2-17.5h-0.1c-2.3,9.1-0.6,3.3-5,17.5H308.9z"/>
	<path fill="#5B5B5B" d="M327.4,147.7c2.7-0.5,6.4-0.8,11.3-0.8c5.4,0,9.3,1.1,11.9,3.3c2.4,2,4,5.2,4,8.9
		c0,13.1-14.4,14.5-19.8,13.2v15.3h-7.3V147.7z M334.7,166.4c2.5,0.8,12.5,1.2,12.5-7.1c0-4.5-3.1-6.8-8.2-6.8c-2,0-3.5,0.2-4.3,0.4
		V166.4z"/>
	<path fill="#5B5B5B" d="M368.3,147.1v40.4H361v-40.4H368.3z"/>
</g>
<g>
	<path fill="#F29532" d="M110.2,131.6c9.3-0.5,10.1-5.2,10.1-9c0-3.1-0.3-6.7-0.7-10.4c-0.4-3.6-0.7-7.2-0.7-10.5
		c0-13,7.9-18.6,21.2-18.6h5.7v13.4h-2.5c-5.3,0-7.2,3.4-7.2,8.7c0,2.1,0.3,4.2,0.5,6.8c0.3,2.6,0.5,5.6,0.5,9
		c0.1,10.9-4.1,14.8-12.4,16.4v0.3c8.2,1.6,12.6,5.3,12.4,16.3c0,3.6-0.3,6.6-0.5,9.2c-0.3,2.6-0.5,4.8-0.5,6.8
		c0,5.3,1.6,8.7,7.2,8.9h2.5v13.3h-5.7c-12.7,0-21.2-5.1-21.2-18.6c0-3.3,0.3-6.8,0.8-10.5c0.3-3.7,0.5-7.2,0.5-10.4
		c0-3.7-0.8-8.5-10.1-9V131.6z"/>
	<path fill="#F29532" d="M218.5,143.6c-9.3,0.5-10.1,5.3-10.1,9c0,3.1,0.3,6.7,0.5,10.4c0.4,3.7,0.7,7.2,0.7,10.5
		c0,13.5-8.5,18.6-21.2,18.6h-5.7v-13.3h2.5c5.6-0.1,7.2-3.6,7.2-8.9c0-2-0.3-4.2-0.4-6.8c-0.3-2.6-0.5-5.6-0.5-9.2
		c-0.1-10.9,4.1-14.6,12.4-16.3v-0.3c-8.2-1.6-12.6-5.5-12.4-16.4c0-3.4,0.3-6.4,0.4-9c0.3-2.6,0.5-4.8,0.5-6.8
		c0-5.3-1.9-8.7-7.2-8.7h-2.5V83h5.7c13.3,0,21.2,5.6,21.2,18.6c0,3.3-0.3,7-0.7,10.5c-0.3,3.7-0.5,7.2-0.5,10.4
		c0,3.8,0.8,8.5,10.1,9V143.6z"/>
</g>
</svg>
